<?xml version="1.0" encoding="utf-8"?>
<svg viewBox="1761.184 2354.2935 1843.704 304.309" xmlns="http://www.w3.org/2000/svg" height="180px" width="180px">
  <defs>
    <clipPath clipPathUnits="userSpaceOnUse" id="clipPath18">
      <path d="M 0,3000 H 3000 V 0 H 0 Z" id="path16"/>
    </clipPath>
  </defs>
  <g id="g14" clip-path="url(#clipPath18)" transform="matrix(1.3333330154418945, 0, 0, -1.3333330154418945, 678.3163452148438, 3445.804931640625)">
    <g id="g20" transform="translate(1069.2153,2272.6497)"/>
    <g id="g24" transform="translate(1160.7715,2251.4631)"/>
    <g id="g28" transform="translate(1321.489,2251.4631)"/>
    <g id="g32" transform="translate(1537.5955,2175.4917)"/>
    <g id="g36" transform="translate(1678.4906,2312.9063)"/>
    <g id="g40" transform="translate(1810.3038,2171.1028)"/>
    <g id="g44" transform="translate(1989.3336,2283.8486)"/>
    <g id="g48" transform="translate(2223.1492,2273.4067)"/>
    <g id="g52" transform="translate(2353.8989,2171.1028)"/>
    <g id="g56" transform="translate(795.8689,2302.9485)"/>
    <g id="g60" transform="translate(865.7831,2193.5042)"/>
    <g id="g64" transform="translate(1172.4052,757.2246)">
      <path d="m 0,0 c 6.667,-7.757 10.004,-19.467 10.004,-35.132 v -57.234 c 0,-4.344 -1.279,-7.758 -3.838,-10.237 -2.56,-2.479 -6.089,-3.723 -10.587,-3.723 -4.5,0 -8.066,1.244 -10.702,3.723 -2.639,2.479 -3.955,5.893 -3.955,10.237 v 55.606 c 0,8.841 -1.669,15.275 -5.002,19.311 -3.337,4.031 -8.572,6.049 -15.704,6.049 -8.377,0 -15.087,-2.639 -20.126,-7.91 -5.042,-5.275 -7.561,-12.332 -7.561,-21.173 v -51.883 c 0,-4.344 -1.32,-7.758 -3.955,-10.237 -2.639,-2.479 -6.206,-3.723 -10.702,-3.723 -4.501,0 -8.027,1.244 -10.587,3.723 -2.559,2.479 -3.838,5.893 -3.838,10.237 v 90.04 c 0,4.031 1.315,7.288 3.955,9.772 2.635,2.479 6.201,3.721 10.702,3.721 4.032,0 7.329,-1.203 9.888,-3.605 2.559,-2.407 3.839,-5.548 3.839,-9.423 v -6.282 c 3.875,6.358 9.074,11.245 15.588,14.658 6.515,3.41 13.879,5.118 22.103,5.118 C -16.832,11.633 -6.67,7.754 0,0" style="fill:#ffffff;fill-opacity:1;fill-rule:nonzero;stroke:none" id="path66"/>
    </g>
    <g id="g68" transform="translate(1242.7823,740.9388)">
      <path d="M 0,0 C -4.733,-4.966 -7.561,-12.098 -8.492,-21.405 H 44.089 C 43.777,-11.946 41.45,-4.77 37.109,0.116 32.765,5.002 26.716,7.445 18.962,7.445 11.052,7.445 4.73,4.961 0,0 m 65.61,-60.492 c 1.629,-2.018 2.443,-4.733 2.443,-8.143 0,-4.81 -2.872,-8.841 -8.608,-12.099 -5.275,-2.947 -11.248,-5.314 -17.915,-7.095 -6.671,-1.781 -13.029,-2.676 -19.078,-2.676 -18.304,0 -32.805,5.272 -43.507,15.821 -10.703,10.546 -16.054,24.971 -16.054,43.275 0,11.633 2.327,21.946 6.98,30.943 4.653,8.995 11.204,15.974 19.66,20.94 8.452,4.962 18.031,7.445 28.733,7.445 10.237,0 19.154,-2.251 26.756,-6.748 7.598,-4.5 13.494,-10.858 17.682,-19.077 4.188,-8.223 6.282,-17.915 6.282,-29.083 0,-6.67 -2.948,-10.005 -8.841,-10.005 H -8.492 c 0.931,-10.702 3.956,-18.576 9.074,-23.615 5.118,-5.042 12.563,-7.561 22.335,-7.561 4.962,0 9.343,0.619 13.146,1.861 3.798,1.24 8.103,2.945 12.912,5.12 4.653,2.479 8.063,3.721 10.237,3.721 2.636,0 4.769,-1.01 6.398,-3.024" style="fill:#ffffff;fill-opacity:1;fill-rule:nonzero;stroke:none" id="path70"/>
    </g>
    <g id="g72" transform="translate(1366.3225,740.9388)">
      <path d="M 0,0 C -4.733,-4.966 -7.561,-12.098 -8.492,-21.405 H 44.089 C 43.777,-11.946 41.45,-4.77 37.109,0.116 32.765,5.002 26.716,7.445 18.962,7.445 11.052,7.445 4.73,4.961 0,0 m 65.61,-60.492 c 1.629,-2.018 2.443,-4.733 2.443,-8.143 0,-4.81 -2.872,-8.841 -8.608,-12.099 -5.275,-2.947 -11.248,-5.314 -17.915,-7.095 -6.671,-1.781 -13.029,-2.676 -19.078,-2.676 -18.304,0 -32.805,5.272 -43.507,15.821 -10.703,10.546 -16.054,24.971 -16.054,43.275 0,11.633 2.327,21.946 6.98,30.943 4.653,8.995 11.204,15.974 19.66,20.94 8.452,4.962 18.031,7.445 28.733,7.445 10.237,0 19.154,-2.251 26.756,-6.748 7.598,-4.5 13.494,-10.858 17.682,-19.077 4.188,-8.223 6.282,-17.915 6.282,-29.083 0,-6.67 -2.948,-10.005 -8.841,-10.005 H -8.492 c 0.931,-10.702 3.956,-18.576 9.074,-23.615 5.118,-5.042 12.563,-7.561 22.335,-7.561 4.962,0 9.343,0.619 13.146,1.861 3.798,1.24 8.103,2.945 12.912,5.12 4.653,2.479 8.063,3.721 10.237,3.721 2.636,0 4.769,-1.01 6.398,-3.024" style="fill:#ffffff;fill-opacity:1;fill-rule:nonzero;stroke:none" id="path74"/>
    </g>
    <g id="g76" transform="translate(1532.439,682.5413)">
      <path d="m 0,0 c 5.038,6.358 7.562,15.432 7.562,27.221 0,11.785 -2.524,20.823 -7.562,27.105 -5.042,6.282 -12.138,9.423 -21.288,9.423 -9.307,0 -16.519,-3.105 -21.637,-9.307 -5.119,-6.205 -7.678,-15.123 -7.678,-26.756 0,-11.789 2.559,-20.939 7.678,-27.453 5.118,-6.515 12.251,-9.772 21.405,-9.772 9.306,0 16.478,3.177 21.52,9.539 m 32.223,131.22 c 2.792,-2.483 4.189,-5.741 4.189,-9.772 v -139.13 c 0,-4.188 -1.32,-7.526 -3.956,-10.005 -2.639,-2.483 -6.129,-3.723 -10.469,-3.723 -4.344,0 -7.834,1.24 -10.47,3.723 -2.639,2.479 -3.955,5.817 -3.955,10.005 v 5.816 c -3.414,-6.361 -8.34,-11.324 -14.774,-14.89 -6.439,-3.566 -13.767,-5.351 -21.987,-5.351 -9.771,0 -18.496,2.479 -26.174,7.445 -7.678,4.962 -13.651,11.982 -17.914,21.056 -4.268,9.073 -6.399,19.503 -6.399,31.292 0,11.786 2.131,22.103 6.399,30.944 4.263,8.841 10.196,15.665 17.798,20.474 7.598,4.806 16.362,7.212 26.29,7.212 8.22,0 15.509,-1.708 21.871,-5.118 C -0.97,77.785 3.915,72.975 7.329,66.773 v 55.14 c 0,3.875 1.279,7.016 3.838,9.423 2.561,2.403 6.01,3.606 10.354,3.606 4.341,0 7.911,-1.243 10.702,-3.722" style="fill:#ffffff;fill-opacity:1;fill-rule:nonzero;stroke:none" id="path78"/>
    </g>
    <g id="g80" transform="translate(1640.7422,788.1689)">
      <path d="m 0,0 c -3.257,-3.88 -4.887,-9.463 -4.887,-16.752 v -5.351 h 19.776 c 8.686,0 13.03,-3.646 13.03,-10.935 0,-7.293 -4.344,-10.935 -13.03,-10.935 H -4.887 v -79.337 c 0,-4.501 -1.358,-7.911 -4.071,-10.237 -2.715,-2.327 -6.165,-3.49 -10.353,-3.49 -4.188,0 -7.678,1.163 -10.47,3.49 -2.792,2.326 -4.188,5.736 -4.188,10.237 v 79.337 h -11.633 c -8.688,0 -13.028,3.642 -13.028,10.935 0,7.289 4.34,10.935 13.028,10.935 h 11.633 v 1.629 c 0,14.577 3.839,26.017 11.517,34.317 7.678,8.296 18.496,12.989 32.456,14.076 l 6.049,0.465 c 6.202,0.466 10.586,-0.196 13.145,-1.978 2.559,-1.785 3.839,-4.536 3.839,-8.259 0,-6.671 -3.803,-10.394 -11.4,-11.168 L 15.588,6.514 C 8.452,6.048 3.257,3.875 0,0" style="fill:#ffffff;fill-opacity:1;fill-rule:nonzero;stroke:none" id="path82"/>
    </g>
    <g id="g84" transform="translate(1742.0642,679.1675)">
      <path d="M 0,0 C 4.885,5.194 7.328,11.902 7.328,20.125 V 25.01 H 3.141 c -10.393,0 -18.46,-0.464 -24.197,-1.395 -5.741,-0.931 -9.852,-2.559 -12.331,-4.886 -2.482,-2.327 -3.722,-5.507 -3.722,-9.539 0,-4.966 1.745,-9.037 5.235,-12.215 3.49,-3.181 7.793,-4.77 12.912,-4.77 7.754,0 14.075,2.596 18.962,7.795 m 23.499,77.941 c 7.677,-7.834 11.516,-19.74 11.516,-35.714 v -56.768 c 0,-4.188 -1.243,-7.485 -3.723,-9.889 -2.483,-2.406 -5.896,-3.606 -10.236,-3.606 -4.035,0 -7.329,1.24 -9.889,3.723 -2.559,2.479 -3.839,5.736 -3.839,9.772 v 5.118 c -2.639,-6.049 -6.787,-10.782 -12.446,-14.192 -5.665,-3.41 -12.215,-5.118 -19.661,-5.118 -7.601,0 -14.504,1.552 -20.707,4.652 -6.205,3.101 -11.09,7.365 -14.657,12.797 -3.569,5.427 -5.351,11.476 -5.351,18.147 0,8.376 2.13,14.967 6.398,19.777 4.264,4.805 11.204,8.295 20.823,10.469 9.616,2.171 22.877,3.257 39.785,3.257 h 5.816 v 5.351 c 0,7.598 -1.628,13.146 -4.885,16.636 -3.258,3.489 -8.533,5.235 -15.822,5.235 -4.499,0 -9.072,-0.662 -13.726,-1.979 -4.653,-1.319 -10.161,-3.22 -16.519,-5.7 -4.035,-2.016 -6.98,-3.024 -8.841,-3.024 -2.792,0 -5.082,1.008 -6.864,3.024 -1.785,2.015 -2.675,4.654 -2.675,7.911 0,2.636 0.658,4.923 1.977,6.863 1.317,1.938 3.527,3.76 6.631,5.468 5.428,2.945 11.903,5.271 19.427,6.98 7.522,1.705 14.927,2.559 22.22,2.559 15.82,0 27.569,-3.919 35.248,-11.749" style="fill:#ffffff;fill-opacity:1;fill-rule:nonzero;stroke:none" id="path86"/>
    </g>
    <g id="g88" transform="translate(1879.6805,765.8329)">
      <path d="m 0,0 c 2.326,-2.018 3.489,-5.042 3.489,-9.074 0,-4.187 -1.01,-7.292 -3.024,-9.305 -2.017,-2.018 -5.664,-3.339 -10.935,-3.956 l -6.979,-0.698 c -9.154,-0.931 -15.861,-4.036 -20.125,-9.307 -4.269,-5.274 -6.399,-11.865 -6.399,-19.776 v -48.858 c 0,-4.501 -1.396,-7.95 -4.188,-10.354 -2.792,-2.402 -6.282,-3.606 -10.469,-3.606 -4.189,0 -7.642,1.204 -10.354,3.606 -2.715,2.404 -4.071,5.853 -4.071,10.354 v 90.039 c 0,4.34 1.356,7.678 4.071,10.005 2.712,2.326 6.086,3.489 10.121,3.489 4.031,0 7.289,-1.126 9.772,-3.374 2.479,-2.249 3.722,-5.467 3.722,-9.654 v -9.307 c 2.945,6.824 7.329,12.099 13.146,15.821 5.816,3.722 12.29,5.817 19.426,6.281 l 3.258,0.233 C -5.508,2.869 -2.327,2.014 0,0" style="fill:#ffffff;fill-opacity:1;fill-rule:nonzero;stroke:none" id="path90"/>
    </g>
    <g id="g92" transform="translate(2059.4097,757.8065)">
      <path d="m 0,0 c 6.591,-7.369 9.887,-19.275 9.887,-35.714 v -57.233 c 0,-4.501 -1.359,-7.951 -4.071,-10.354 -2.715,-2.403 -6.246,-3.607 -10.586,-3.607 -4.188,0 -7.641,1.204 -10.353,3.607 -2.716,2.403 -4.072,5.853 -4.072,10.354 v 57.233 c 0,8.529 -1.512,14.619 -4.536,18.265 -3.025,3.643 -7.642,5.467 -13.844,5.467 -7.602,0 -13.65,-2.6 -18.147,-7.794 -4.501,-5.199 -6.747,-12.294 -6.747,-21.289 v -51.882 c 0,-4.501 -1.36,-7.951 -4.073,-10.354 -2.714,-2.403 -6.164,-3.607 -10.352,-3.607 -4.189,0 -7.678,1.204 -10.47,3.607 -2.792,2.403 -4.188,5.853 -4.188,10.354 v 57.233 c 0,8.529 -1.512,14.619 -4.536,18.265 -3.025,3.643 -7.642,5.467 -13.844,5.467 -7.602,0 -13.611,-2.6 -18.031,-7.794 -4.421,-5.199 -6.631,-12.294 -6.631,-21.289 v -51.882 c 0,-4.501 -1.396,-7.951 -4.188,-10.354 -2.792,-2.403 -6.282,-3.607 -10.469,-3.607 -4.189,0 -7.642,1.204 -10.354,3.607 -2.715,2.403 -4.071,5.853 -4.071,10.354 v 90.039 c 0,4.34 1.395,7.677 4.187,10.004 2.792,2.327 6.282,3.49 10.47,3.49 4.032,0 7.329,-1.127 9.888,-3.374 2.559,-2.25 3.839,-5.467 3.839,-9.655 v -5.584 c 3.566,6.202 8.336,10.935 14.309,14.193 5.969,3.257 12.833,4.885 20.59,4.885 17.061,0 28.461,-7.136 34.201,-21.404 3.41,6.514 8.452,11.709 15.123,15.588 6.667,3.875 14.192,5.816 22.567,5.816 C -16.094,11.051 -6.594,7.365 0,0" style="fill:#ffffff;fill-opacity:1;fill-rule:nonzero;stroke:none" id="path94"/>
    </g>
    <g id="g96" transform="translate(2159.9141,679.1675)">
      <path d="M 0,0 C 4.886,5.194 7.328,11.902 7.328,20.125 V 25.01 H 3.141 c -10.393,0 -18.46,-0.464 -24.197,-1.395 -5.74,-0.931 -9.852,-2.559 -12.331,-4.886 -2.482,-2.327 -3.722,-5.507 -3.722,-9.539 0,-4.966 1.745,-9.037 5.235,-12.215 3.49,-3.181 7.794,-4.77 12.912,-4.77 7.754,0 14.076,2.596 18.962,7.795 m 23.499,77.941 c 7.677,-7.834 11.516,-19.74 11.516,-35.714 v -56.768 c 0,-4.188 -1.243,-7.485 -3.723,-9.889 -2.483,-2.406 -5.896,-3.606 -10.236,-3.606 -4.035,0 -7.329,1.24 -9.888,3.723 -2.56,2.479 -3.84,5.736 -3.84,9.772 v 5.118 c -2.639,-6.049 -6.786,-10.782 -12.446,-14.192 -5.665,-3.41 -12.215,-5.118 -19.661,-5.118 -7.601,0 -14.504,1.552 -20.706,4.652 -6.205,3.101 -11.091,7.365 -14.658,12.797 -3.569,5.427 -5.351,11.476 -5.351,18.147 0,8.376 2.13,14.967 6.398,19.777 4.265,4.805 11.204,8.295 20.824,10.469 9.615,2.171 22.876,3.257 39.784,3.257 h 5.816 v 5.351 c 0,7.598 -1.628,13.146 -4.885,16.636 -3.257,3.489 -8.533,5.235 -15.821,5.235 -4.5,0 -9.073,-0.662 -13.727,-1.979 -4.653,-1.319 -10.161,-3.22 -16.519,-5.7 -4.035,-2.016 -6.98,-3.024 -8.841,-3.024 -2.791,0 -5.082,1.008 -6.863,3.024 -1.785,2.015 -2.676,4.654 -2.676,7.911 0,2.636 0.658,4.923 1.977,6.863 1.317,1.938 3.527,3.76 6.631,5.468 5.428,2.945 11.903,5.271 19.427,6.98 7.522,1.705 14.927,2.559 22.22,2.559 15.82,0 27.569,-3.919 35.248,-11.749" style="fill:#ffffff;fill-opacity:1;fill-rule:nonzero;stroke:none" id="path98"/>
    </g>
    <g id="g100" transform="translate(962.2896,780.5146)">
      <path d="m 0,0 c -23.736,37.156 -72.827,49.372 -110.646,26.706 -39.358,-23.588 -51.277,-75.021 -26.738,-113.434 l 47.001,-73.576 c 3.982,-6.233 12.263,-8.058 18.496,-4.076 6.233,3.981 8.058,12.262 4.076,18.495 l -47.001,73.577 c -16.523,25.865 -8.386,60.539 18.289,76.25 0,0 41.771,27.683 96.523,-3.942" style="fill:#ffffff;fill-opacity:1;fill-rule:nonzero;stroke:none" id="path102"/>
    </g>
    <g id="g104" transform="translate(1016.0312,696.3871)">
      <path d="m 0,0 -53.742,84.128 c -54.752,31.624 -96.522,3.941 -96.522,3.941 25.336,14.922 58.015,6.585 73.844,-18.195 L -47.401,24.447 -82,2.345 c -6.233,-3.982 -8.058,-12.263 -4.076,-18.496 v 0 c 3.982,-6.233 12.263,-8.058 18.496,-4.076 l 34.599,22.102 10.409,-16.294 c 14.156,-22.16 10.211,-50.787 -7.985,-68.413 -4.619,-4.475 -5.557,-11.529 -2.095,-16.949 v -10e-4 c 4.528,-7.087 14.435,-8.342 20.499,-2.516 C 15.198,-76.021 21.18,-33.156 0,0" style="fill:#eaeaea;fill-opacity:1;fill-rule:nonzero;stroke:none" id="path106"/>
    </g>
  </g>
</svg>