<?xml version="1.0" encoding="UTF-8" standalone="no" ?>
<!DOCTYPE svg PUBLIC "-//W3C//DTD SVG 1.1//EN" "http://www.w3.org/Graphics/SVG/1.1/DTD/svg11.dtd">
<svg xmlns="http://www.w3.org/2000/svg" xmlns:xlink="http://www.w3.org/1999/xlink" version="1.1" width="1080" height="1080" viewBox="0 0 1080 1080" xml:space="preserve">
<desc>Created with Fabric.js 5.2.4</desc>
<defs>
</defs>
<g transform="matrix(1 0 0 1 540 540)" id="a4a52d25-dea4-4c28-a6ba-6f9554566e18"  >
</g>
<g transform="matrix(1 0 0 1 540 540)" id="dcb7ca49-87ef-4133-8bc4-f0d627643140"  >
<rect style="stroke: none; stroke-width: 1; stroke-dasharray: none; stroke-linecap: butt; stroke-dashoffset: 0; stroke-linejoin: miter; stroke-miterlimit: 4; fill: rgb(255,255,255); fill-rule: nonzero; opacity: 1; visibility: hidden;" vector-effect="non-scaling-stroke"  x="-540" y="-540" rx="0" ry="0" width="1080" height="1080" />
</g>
<g transform="matrix(1.33 0 0 -1.33 1223.97 532.96)" clip-path="url(#CLIPPATH_4)"  >
<clipPath id="CLIPPATH_4" >
	<path transform="matrix(0.75 0 0 -0.75 -1110.56 749.71) translate(-1500, -1500)" d="M 0 3000 L 3000 3000 L 3000 0 L 0 0 Z" stroke-linecap="round" />
</clipPath>
<path style="stroke: none; stroke-width: 1; stroke-dasharray: none; stroke-linecap: butt; stroke-dashoffset: 0; stroke-linejoin: miter; stroke-miterlimit: 4; fill: rgb(255,255,255); fill-rule: nonzero; opacity: 1;" vector-effect="non-scaling-stroke"  transform=" translate(15.24, -30.48)" d="M 0 0 C 4.885 5.194 7.328 11.902 7.328 20.125 L 7.328 25.01 L 3.141 25.01 C -7.252000000000001 25.01 -15.319 24.546000000000003 -21.055999999999997 23.615000000000002 C -26.796999999999997 22.684 -30.907999999999998 21.056 -33.387 18.729000000000003 C -35.869 16.402 -37.109 13.222000000000003 -37.109 9.190000000000003 C -37.109 4.224000000000003 -35.364000000000004 0.15300000000000225 -31.874000000000002 -3.024999999999997 C -28.384 -6.205999999999997 -24.081000000000003 -7.794999999999996 -18.962000000000003 -7.794999999999996 C -11.208000000000004 -7.794999999999996 -4.887000000000004 -5.198999999999996 -3.552713678800501e-15 3.552713678800501e-15 M 23.498999999999995 77.941 C 31.175999999999995 70.107 35.01499999999999 58.20100000000001 35.01499999999999 42.227000000000004 L 35.01499999999999 -14.540999999999997 C 35.01499999999999 -18.728999999999996 33.77199999999999 -22.025999999999996 31.291999999999994 -24.429999999999996 C 28.808999999999994 -26.835999999999995 25.395999999999994 -28.035999999999994 21.055999999999994 -28.035999999999994 C 17.020999999999994 -28.035999999999994 13.726999999999993 -26.795999999999996 11.166999999999994 -24.312999999999995 C 8.607999999999993 -21.833999999999996 7.327999999999994 -18.576999999999995 7.327999999999994 -14.540999999999995 L 7.327999999999994 -9.422999999999995 C 4.688999999999995 -15.471999999999994 0.5409999999999942 -20.204999999999995 -5.118000000000006 -23.614999999999995 C -10.783000000000005 -27.024999999999995 -17.333000000000006 -28.732999999999997 -24.779000000000007 -28.732999999999997 C -32.38000000000001 -28.732999999999997 -39.28300000000001 -27.180999999999997 -45.486000000000004 -24.080999999999996 C -51.691 -20.979999999999997 -56.57600000000001 -16.715999999999994 -60.143 -11.283999999999995 C -63.712 -5.856999999999996 -65.494 0.1920000000000055 -65.494 6.863000000000003 C -65.494 15.239000000000003 -63.364 21.830000000000005 -59.096000000000004 26.640000000000004 C -54.832 31.445000000000004 -47.892 34.935 -38.273 37.109 C -28.657000000000004 39.28 -15.396000000000004 40.366 1.5119999999999933 40.366 L 7.327999999999993 40.366 L 7.327999999999993 45.717 C 7.327999999999993 53.315 5.699999999999993 58.863 2.4429999999999934 62.352999999999994 C -0.8150000000000066 65.842 -6.090000000000006 67.588 -13.379000000000005 67.588 C -17.878000000000004 67.588 -22.451000000000004 66.92599999999999 -27.105000000000004 65.609 C -31.758000000000003 64.28999999999999 -37.266000000000005 62.388999999999996 -43.624 59.90899999999999 C -47.659000000000006 57.892999999999994 -50.604 56.88499999999999 -52.465 56.88499999999999 C -55.257000000000005 56.88499999999999 -57.547000000000004 57.892999999999994 -59.329 59.90899999999999 C -61.114 61.92399999999999 -62.004 64.56299999999999 -62.004 67.82 C -62.004 70.45599999999999 -61.346 72.743 -60.027 74.68299999999999 C -58.71 76.621 -56.5 78.443 -53.396 80.151 C -47.968 83.09599999999999 -41.493 85.422 -33.969 87.131 C -26.447000000000003 88.836 -19.042 89.69 -11.749000000000002 89.69 C 4.070999999999998 89.69 15.819999999999997 85.771 23.498999999999995 77.941" stroke-linecap="round" />
</g>
<g transform="matrix(1.33 0 0 -1.33 1381.44 532.92)" clip-path="url(#CLIPPATH_5)"  >
<clipPath id="CLIPPATH_5" >
	<path transform="matrix(0.75 0 0 -0.75 -1228.63 749.68) translate(-1500, -1500)" d="M 0 3000 L 3000 3000 L 3000 0 L 0 0 Z" stroke-linecap="round" />
</clipPath>
<path style="stroke: none; stroke-width: 1; stroke-dasharray: none; stroke-linecap: butt; stroke-dashoffset: 0; stroke-linejoin: miter; stroke-miterlimit: 4; fill: rgb(255,255,255); fill-rule: nonzero; opacity: 1;" vector-effect="non-scaling-stroke"  transform=" translate(34.78, 56.16)" d="M 0 0 C 2.326 -2.018 3.489 -5.042 3.489 -9.074 C 3.489 -13.261 2.479 -16.366 0.46499999999999986 -18.378999999999998 C -1.552 -20.397 -5.199 -21.717999999999996 -10.47 -22.334999999999997 L -17.449 -23.032999999999998 C -26.603 -23.964 -33.31 -27.068999999999996 -37.574 -32.339999999999996 C -41.842999999999996 -37.614 -43.973 -44.205 -43.973 -52.116 L -43.973 -100.97399999999999 C -43.973 -105.475 -45.369 -108.92399999999999 -48.161 -111.32799999999999 C -50.953 -113.72999999999999 -54.443 -114.93399999999998 -58.63 -114.93399999999998 C -62.819 -114.93399999999998 -66.272 -113.72999999999999 -68.98400000000001 -111.32799999999999 C -71.69900000000001 -108.92399999999999 -73.055 -105.475 -73.055 -100.97399999999999 L -73.055 -10.934999999999988 C -73.055 -6.594999999999988 -71.69900000000001 -3.256999999999988 -68.98400000000001 -0.9299999999999873 C -66.272 1.3960000000000128 -62.89800000000001 2.5590000000000126 -58.86300000000001 2.5590000000000126 C -54.83200000000001 2.5590000000000126 -51.574000000000005 1.4330000000000127 -49.09100000000001 -0.8149999999999875 C -46.61200000000001 -3.0639999999999876 -45.36900000000001 -6.281999999999988 -45.36900000000001 -10.468999999999987 L -45.36900000000001 -19.77599999999999 C -42.42400000000001 -12.95199999999999 -38.040000000000006 -7.676999999999989 -32.223000000000006 -3.9549999999999894 C -26.407000000000007 -0.23299999999998944 -19.933000000000007 1.8620000000000108 -12.797000000000008 2.3260000000000103 L -9.539000000000009 2.5590000000000104 C -5.508 2.869 -2.327 2.014 0 0" stroke-linecap="round" />
</g>
<g transform="matrix(1.33 0 0 -1.33 1564.77 532.65)" clip-path="url(#CLIPPATH_6)"  >
<clipPath id="CLIPPATH_6" >
	<path transform="matrix(0.75 0 0 -0.75 -1366.25 749.48) translate(-1500, -1500)" d="M 0 3000 L 3000 3000 L 3000 0 L 0 0 Z" stroke-linecap="round" />
</clipPath>
<path style="stroke: none; stroke-width: 1; stroke-dasharray: none; stroke-linecap: butt; stroke-dashoffset: 0; stroke-linejoin: miter; stroke-miterlimit: 4; fill: rgb(255,255,255); fill-rule: nonzero; opacity: 1;" vector-effect="non-scaling-stroke"  transform=" translate(76.89, 47.93)" d="M 0 0 C 6.591 -7.369 9.887 -19.275 9.887 -35.714 L 9.887 -92.947 C 9.887 -97.44800000000001 8.528 -100.898 5.816000000000001 -103.301 C 3.101000000000001 -105.70400000000001 -0.4299999999999997 -106.908 -4.77 -106.908 C -8.957999999999998 -106.908 -12.411 -105.70400000000001 -15.123 -103.301 C -17.839 -100.898 -19.195 -97.44800000000001 -19.195 -92.947 L -19.195 -35.714000000000006 C -19.195 -27.185000000000006 -20.707 -21.095000000000006 -23.731 -17.449000000000005 C -26.756 -13.806000000000004 -31.373 -11.982000000000006 -37.575 -11.982000000000006 C -45.17700000000001 -11.982000000000006 -51.225 -14.582000000000006 -55.722 -19.776000000000007 C -60.223 -24.97500000000001 -62.469 -32.07000000000001 -62.469 -41.06500000000001 L -62.469 -92.947 C -62.469 -97.44800000000001 -63.829 -100.898 -66.542 -103.301 C -69.256 -105.70400000000001 -72.706 -106.908 -76.894 -106.908 C -81.083 -106.908 -84.572 -105.70400000000001 -87.364 -103.301 C -90.156 -100.898 -91.552 -97.44800000000001 -91.552 -92.947 L -91.552 -35.714000000000006 C -91.552 -27.185000000000006 -93.06400000000001 -21.095000000000006 -96.08800000000001 -17.449000000000005 C -99.11300000000001 -13.806000000000004 -103.73 -11.982000000000006 -109.932 -11.982000000000006 C -117.534 -11.982000000000006 -123.543 -14.582000000000006 -127.963 -19.776000000000007 C -132.384 -24.97500000000001 -134.594 -32.07000000000001 -134.594 -41.06500000000001 L -134.594 -92.947 C -134.594 -97.44800000000001 -135.98999999999998 -100.898 -138.78199999999998 -103.301 C -141.57399999999998 -105.70400000000001 -145.064 -106.908 -149.25099999999998 -106.908 C -153.43999999999997 -106.908 -156.89299999999997 -105.70400000000001 -159.60499999999996 -103.301 C -162.31999999999996 -100.898 -163.67599999999996 -97.44800000000001 -163.67599999999996 -92.947 L -163.67599999999996 -2.9080000000000013 C -163.67599999999996 1.4319999999999986 -162.28099999999995 4.768999999999998 -159.48899999999995 7.095999999999998 C -156.69699999999995 9.422999999999998 -153.20699999999994 10.585999999999999 -149.01899999999995 10.585999999999999 C -144.98699999999994 10.585999999999999 -141.68999999999994 9.458999999999998 -139.13099999999994 7.211999999999998 C -136.57199999999995 4.961999999999998 -135.29199999999994 1.7449999999999983 -135.29199999999994 -2.4430000000000014 L -135.29199999999994 -8.027000000000001 C -131.72599999999994 -1.825000000000001 -126.95599999999995 2.9079999999999995 -120.98299999999995 6.165999999999999 C -115.01399999999995 9.422999999999998 -108.14999999999995 11.050999999999998 -100.39299999999994 11.050999999999998 C -83.33199999999994 11.050999999999998 -71.93199999999995 3.9149999999999983 -66.19199999999995 -10.353000000000002 C -62.781999999999954 -3.8390000000000013 -57.73999999999995 1.355999999999998 -51.06899999999995 5.234999999999998 C -44.40199999999995 9.109999999999998 -36.87699999999995 11.050999999999998 -28.501999999999953 11.050999999999998 C -16.094 11.051 -6.594 7.365 0 0" stroke-linecap="round" />
</g>
<g transform="matrix(1.33 0 0 -1.33 1781.1 532.96)" clip-path="url(#CLIPPATH_7)"  >
<clipPath id="CLIPPATH_7" >
	<path transform="matrix(0.75 0 0 -0.75 -1528.41 749.71) translate(-1500, -1500)" d="M 0 3000 L 3000 3000 L 3000 0 L 0 0 Z" stroke-linecap="round" />
</clipPath>
<path style="stroke: none; stroke-width: 1; stroke-dasharray: none; stroke-linecap: butt; stroke-dashoffset: 0; stroke-linejoin: miter; stroke-miterlimit: 4; fill: rgb(255,255,255); fill-rule: nonzero; opacity: 1;" vector-effect="non-scaling-stroke"  transform=" translate(15.24, -30.48)" d="M 0 0 C 4.886 5.194 7.328 11.902 7.328 20.125 L 7.328 25.01 L 3.141 25.01 C -7.252000000000001 25.01 -15.319 24.546000000000003 -21.055999999999997 23.615000000000002 C -26.796 22.684 -30.907999999999998 21.056 -33.387 18.729000000000003 C -35.869 16.402 -37.109 13.222000000000003 -37.109 9.190000000000003 C -37.109 4.224000000000003 -35.364000000000004 0.15300000000000225 -31.874000000000002 -3.024999999999997 C -28.384 -6.205999999999997 -24.080000000000002 -7.794999999999996 -18.962000000000003 -7.794999999999996 C -11.208000000000004 -7.794999999999996 -4.886000000000003 -5.198999999999996 -3.552713678800501e-15 3.552713678800501e-15 M 23.498999999999995 77.941 C 31.175999999999995 70.107 35.01499999999999 58.20100000000001 35.01499999999999 42.227000000000004 L 35.01499999999999 -14.540999999999997 C 35.01499999999999 -18.728999999999996 33.77199999999999 -22.025999999999996 31.291999999999994 -24.429999999999996 C 28.808999999999994 -26.835999999999995 25.395999999999994 -28.035999999999994 21.055999999999994 -28.035999999999994 C 17.020999999999994 -28.035999999999994 13.726999999999993 -26.795999999999996 11.167999999999994 -24.312999999999995 C 8.607999999999993 -21.833999999999996 7.327999999999994 -18.576999999999995 7.327999999999994 -14.540999999999995 L 7.327999999999994 -9.422999999999995 C 4.688999999999995 -15.471999999999994 0.5419999999999945 -20.204999999999995 -5.118000000000006 -23.614999999999995 C -10.783000000000005 -27.024999999999995 -17.333000000000006 -28.732999999999997 -24.779000000000007 -28.732999999999997 C -32.38000000000001 -28.732999999999997 -39.28300000000001 -27.180999999999997 -45.48500000000001 -24.080999999999996 C -51.690000000000005 -20.979999999999997 -56.57600000000001 -16.715999999999994 -60.14300000000001 -11.283999999999995 C -63.71200000000001 -5.856999999999996 -65.49400000000001 0.1920000000000055 -65.49400000000001 6.863000000000003 C -65.49400000000001 15.239000000000003 -63.36400000000001 21.830000000000005 -59.09600000000002 26.640000000000004 C -54.83100000000002 31.445000000000004 -47.89200000000002 34.935 -38.27200000000002 37.109 C -28.657000000000018 39.28 -15.396000000000019 40.366 1.5119999999999791 40.366 L 7.327999999999979 40.366 L 7.327999999999979 45.717 C 7.327999999999979 53.315 5.699999999999979 58.863 2.442999999999979 62.352999999999994 C -0.8140000000000209 65.842 -6.09000000000002 67.588 -13.378000000000021 67.588 C -17.87800000000002 67.588 -22.451000000000022 66.92599999999999 -27.10500000000002 65.609 C -31.75800000000002 64.28999999999999 -37.26600000000002 62.388999999999996 -43.624000000000024 59.90899999999999 C -47.65900000000002 57.892999999999994 -50.60400000000003 56.88499999999999 -52.465000000000025 56.88499999999999 C -55.25600000000002 56.88499999999999 -57.547000000000025 57.892999999999994 -59.328000000000024 59.90899999999999 C -61.11300000000002 61.92399999999999 -62.004000000000026 64.56299999999999 -62.004000000000026 67.82 C -62.004000000000026 70.45599999999999 -61.346000000000025 72.743 -60.02700000000003 74.68299999999999 C -58.71000000000003 76.621 -56.50000000000003 78.443 -53.39600000000003 80.151 C -47.96800000000003 83.09599999999999 -41.49300000000003 85.422 -33.96900000000003 87.131 C -26.44700000000003 88.836 -19.04200000000003 89.69 -11.74900000000003 89.69 C 4.0709999999999695 89.69 15.819999999999968 85.771 23.498999999999967 77.941" stroke-linecap="round" />
</g>
<g transform="matrix(4.62 0 0 -4.62 386.5 485.47)" clip-path="url(#CLIPPATH_8)"  >
<clipPath id="CLIPPATH_8" >
	<path transform="matrix(0.75 0 0 -0.75 -270.96 743.02) translate(-1500, -1500)" d="M 0 3000 L 3000 3000 L 3000 0 L 0 0 Z" stroke-linecap="round" />
</clipPath>
<path style="stroke: none; stroke-width: 1; stroke-dasharray: none; stroke-linecap: butt; stroke-dashoffset: 0; stroke-linejoin: miter; stroke-miterlimit: 4; fill: rgb(218,218,218); fill-rule: nonzero; opacity: 1;" vector-effect="non-scaling-stroke"  transform=" translate(75.07, 64.18)" d="M 0 0 C -23.736 37.156 -72.827 49.372 -110.646 26.706 C -150.004 3.1179999999999986 -161.923 -48.315 -137.38400000000001 -86.728 L -90.38300000000001 -160.30399999999997 C -86.40100000000001 -166.53699999999998 -78.12 -168.36199999999997 -71.88700000000001 -164.37999999999997 C -65.65400000000001 -160.39899999999997 -63.829000000000015 -152.11799999999997 -67.81100000000002 -145.88499999999996 L -114.81200000000001 -72.30799999999996 C -131.335 -46.44299999999997 -123.19800000000001 -11.768999999999963 -96.52300000000001 3.9420000000000357 C -96.52300000000001 3.9420000000000357 -54.75200000000001 31.625000000000036 -1.4210854715202004e-14 3.552713678800501e-14" stroke-linecap="round" />
</g>
<g transform="matrix(4.62 0 0 -4.62 663.77 593.01)" clip-path="url(#CLIPPATH_9)"  >
<clipPath id="CLIPPATH_9" >
	<path transform="matrix(0.75 0 0 -0.75 -331.01 766.32) translate(-1500, -1500)" d="M 0 3000 L 3000 3000 L 3000 0 L 0 0 Z" stroke-linecap="round" />
</clipPath>
<path style="stroke: none; stroke-width: 1; stroke-dasharray: none; stroke-linecap: butt; stroke-dashoffset: 0; stroke-linejoin: miter; stroke-miterlimit: 4; fill: rgb(205,205,205); fill-rule: nonzero; opacity: 1;" vector-effect="non-scaling-stroke"  transform=" translate(68.76, 3.35)" d="M 0 0 L -53.742 84.128 C -108.494 115.752 -150.264 88.069 -150.264 88.069 C -124.92800000000001 102.991 -92.24900000000001 94.654 -76.42000000000002 69.874 L -47.401 24.447 L -82 2.345 C -88.233 -1.637 -90.05799999999999 -9.918 -86.076 -16.151 L -86.076 -16.151 C -82.094 -22.384 -73.81299999999999 -24.209 -67.58 -20.227 L -32.981 1.875 L -22.572000000000003 -14.419 C -8.416000000000002 -36.579 -12.361000000000002 -65.206 -30.557000000000002 -82.832 C -35.176 -87.30699999999999 -36.114000000000004 -94.36099999999999 -32.652 -99.78099999999999 L -32.652 -99.782 C -28.124000000000002 -106.869 -18.217 -108.124 -12.153000000000002 -102.298 C 15.198 -76.021 21.18 -33.156 0 0" stroke-linecap="round" />
</g>
</svg>