<?xml version="1.0" encoding="UTF-8" standalone="no" ?>
<!DOCTYPE svg PUBLIC "-//W3C//DTD SVG 1.1//EN" "http://www.w3.org/Graphics/SVG/1.1/DTD/svg11.dtd">
<svg xmlns="http://www.w3.org/2000/svg" xmlns:xlink="http://www.w3.org/1999/xlink" version="1.1" width="2040" height="800" viewBox="477.94 -28.25 2040 800" xml:space="preserve">
<desc>Created with Fabric.js 5.2.4</desc>
<defs>
</defs>
<g transform="matrix(1 0 0 1 1020 400)" id="c4f0d081-3899-4e1a-8433-24af9a57a332"  >
<rect style="stroke: none; stroke-width: 1; stroke-dasharray: none; stroke-linecap: butt; stroke-dashoffset: 0; stroke-linejoin: miter; stroke-miterlimit: 4; fill: rgb(255,255,255); fill-rule: nonzero; opacity: 1; visibility: hidden;" vector-effect="non-scaling-stroke"  x="-1020" y="-400" rx="0" ry="0" width="2040" height="800" />
</g>
<g transform="matrix(Infinity NaN NaN Infinity 0 0)" id="b8ee7751-68bf-4138-af17-46d5f3db7eb6"  >
</g>
<g transform="matrix(0.99 0 0 -0.99 990.71 393.11)" id="path22" clip-path="url(#CLIPPATH_3)"  >
<clipPath id="CLIPPATH_3" >
	<path transform="matrix(1 0 0 1 487.08 -711.06) translate(-1500, -1500)" id="path16" d="M 0 3000 L 3000 3000 L 3000 0 L 0 0 Z" stroke-linecap="round" />
</clipPath>
<path style="stroke: none; stroke-width: 1; stroke-dasharray: none; stroke-linecap: butt; stroke-dashoffset: 0; stroke-linejoin: miter; stroke-miterlimit: 4; fill: rgb(51,51,51); fill-rule: nonzero; opacity: 1;" vector-effect="non-scaling-stroke"  transform=" translate(56.3, 61.59)" d="M 0 0 C 8.673 -10.092 13.015 -25.325 13.015 -45.704 L 13.015 -120.161 C 13.015 -125.813 11.350000000000001 -130.254 8.021 -133.48 C 4.692 -136.70499999999998 0.09900000000000109 -138.32299999999998 -5.7509999999999994 -138.32299999999998 C -11.605 -138.32299999999998 -16.244999999999997 -136.70499999999998 -19.673000000000002 -133.48 C -23.107000000000003 -130.254 -24.819000000000003 -125.81299999999999 -24.819000000000003 -120.16099999999999 L -24.819000000000003 -47.82199999999999 C -24.819000000000003 -36.319999999999986 -26.990000000000002 -27.94999999999999 -31.327 -22.69999999999999 C -35.668 -17.45599999999999 -42.479 -14.830999999999989 -51.757000000000005 -14.830999999999989 C -62.654 -14.830999999999989 -71.38300000000001 -18.26399999999999 -77.93900000000001 -25.120999999999988 C -84.498 -31.983999999999988 -87.775 -41.16399999999999 -87.775 -52.66499999999999 L -87.775 -120.16099999999999 C -87.775 -125.81299999999999 -89.492 -130.254 -92.921 -133.48 C -96.35400000000001 -136.70499999999998 -100.994 -138.32299999999998 -106.84400000000001 -138.32299999999998 C -112.69900000000001 -138.32299999999998 -117.286 -136.70499999999998 -120.61600000000001 -133.48 C -123.94500000000001 -130.254 -125.60900000000001 -125.81299999999999 -125.60900000000001 -120.16099999999999 L -125.60900000000001 -3.026 C -125.60900000000001 2.218 -123.89800000000001 6.4559999999999995 -120.46400000000001 9.686 C -117.03500000000001 12.911999999999999 -112.39600000000002 14.527999999999999 -106.54100000000001 14.527999999999999 C -101.296 14.527999999999999 -97.007 12.963 -93.677 9.837999999999997 C -90.34800000000001 6.705999999999998 -88.683 2.6199999999999974 -88.683 -2.421000000000003 L -88.683 -10.593000000000004 C -83.64200000000001 -2.3220000000000027 -76.879 4.034999999999997 -68.40400000000001 8.474999999999998 C -59.92900000000001 12.911999999999999 -50.34800000000001 15.133999999999997 -39.650000000000006 15.133999999999997 C -21.897 15.134 -8.678 10.088 0 0" stroke-linecap="round" />
</g>
<g transform="matrix(0.99 0 0 -0.99 1157.21 393.41)" id="path26" clip-path="url(#CLIPPATH_4)"  >
<clipPath id="CLIPPATH_4" >
	<path transform="matrix(1 0 0 1 318.49 -710.75) translate(-1500, -1500)" id="path16" d="M 0 3000 L 3000 3000 L 3000 0 L 0 0 Z" stroke-linecap="round" />
</clipPath>
<path style="stroke: none; stroke-width: 1; stroke-dasharray: none; stroke-linecap: butt; stroke-dashoffset: 0; stroke-linejoin: miter; stroke-miterlimit: 4; fill: rgb(51,51,51); fill-rule: nonzero; opacity: 1;" vector-effect="non-scaling-stroke"  transform=" translate(-20.73, 40.71)" d="M 0 0 C -6.157 -6.461 -9.836 -15.74 -11.048 -27.847 L 57.357 -27.847 C 56.95 -15.541 53.924 -6.206 48.277 0.151 C 42.625 6.507 34.756 9.685 24.668 9.685 C 14.377 9.685 6.153 6.455 0 0 M 85.354 -78.697 C 87.473 -81.321 88.533 -84.85300000000001 88.533 -89.29 C 88.533 -95.54700000000001 84.796 -100.792 77.334 -105.02900000000001 C 70.471 -108.864 62.70100000000001 -111.94300000000001 54.028000000000006 -114.26 C 45.349000000000004 -116.577 37.078 -117.74000000000001 29.208000000000006 -117.74000000000001 C 5.396000000000004 -117.74000000000001 -13.468999999999994 -110.88300000000001 -27.391999999999996 -97.159 C -41.315 -83.43900000000001 -48.275999999999996 -64.674 -48.275999999999996 -40.861000000000004 C -48.275999999999996 -25.727000000000004 -45.25 -12.311000000000003 -39.196 -0.6060000000000016 C -33.143 11.094999999999999 -24.619999999999997 20.174 -13.619999999999997 26.634999999999998 C -2.623999999999997 33.089999999999996 9.837000000000003 36.32 23.760000000000005 36.32 C 37.078 36.32 48.678000000000004 33.393 58.56700000000001 27.542 C 68.45200000000001 21.688000000000002 76.123 13.417000000000002 81.57100000000001 2.724 C 87.019 -7.974 89.74300000000001 -20.583 89.74300000000001 -35.111000000000004 C 89.74300000000001 -43.789 85.90800000000002 -48.126000000000005 78.24100000000001 -48.126000000000005 L -11.047999999999988 -48.126000000000005 C -9.835999999999988 -62.04900000000001 -5.901999999999988 -72.293 0.7570000000000121 -78.84800000000001 C 7.4150000000000125 -85.40700000000001 17.101000000000013 -88.68400000000001 29.81400000000001 -88.68400000000001 C 36.26900000000001 -88.68400000000001 41.96800000000001 -87.88000000000001 46.915000000000006 -86.263 C 51.857000000000006 -84.65100000000001 57.456 -82.432 63.71300000000001 -79.604 C 69.76700000000001 -76.378 74.203 -74.762 77.031 -74.762 C 80.46000000000001 -74.762 83.235 -76.077 85.35400000000001 -78.697" stroke-linecap="round" />
</g>
<g transform="matrix(0.99 0 0 -0.99 1315.95 393.41)" id="path30" clip-path="url(#CLIPPATH_5)"  >
<clipPath id="CLIPPATH_5" >
	<path transform="matrix(1 0 0 1 157.78 -710.75) translate(-1500, -1500)" id="path16" d="M 0 3000 L 3000 3000 L 3000 0 L 0 0 Z" stroke-linecap="round" />
</clipPath>
<path style="stroke: none; stroke-width: 1; stroke-dasharray: none; stroke-linecap: butt; stroke-dashoffset: 0; stroke-linejoin: miter; stroke-miterlimit: 4; fill: rgb(51,51,51); fill-rule: nonzero; opacity: 1;" vector-effect="non-scaling-stroke"  transform=" translate(-20.73, 40.71)" d="M 0 0 C -6.157 -6.461 -9.836 -15.74 -11.048 -27.847 L 57.357 -27.847 C 56.95 -15.541 53.924 -6.206 48.277 0.151 C 42.625 6.507 34.756 9.685 24.668 9.685 C 14.377 9.685 6.153 6.455 0 0 M 85.354 -78.697 C 87.473 -81.321 88.533 -84.85300000000001 88.533 -89.29 C 88.533 -95.54700000000001 84.796 -100.792 77.334 -105.02900000000001 C 70.471 -108.864 62.70100000000001 -111.94300000000001 54.028000000000006 -114.26 C 45.349000000000004 -116.577 37.078 -117.74000000000001 29.208000000000006 -117.74000000000001 C 5.396000000000004 -117.74000000000001 -13.468999999999994 -110.88300000000001 -27.391999999999996 -97.159 C -41.315 -83.43900000000001 -48.275999999999996 -64.674 -48.275999999999996 -40.861000000000004 C -48.275999999999996 -25.727000000000004 -45.25 -12.311000000000003 -39.196 -0.6060000000000016 C -33.143 11.094999999999999 -24.619999999999997 20.174 -13.619999999999997 26.634999999999998 C -2.623999999999997 33.089999999999996 9.837000000000003 36.32 23.760000000000005 36.32 C 37.078 36.32 48.678000000000004 33.393 58.56700000000001 27.542 C 68.45200000000001 21.688000000000002 76.123 13.417000000000002 81.57100000000001 2.724 C 87.019 -7.974 89.74300000000001 -20.583 89.74300000000001 -35.111000000000004 C 89.74300000000001 -43.789 85.90800000000002 -48.126000000000005 78.24100000000001 -48.126000000000005 L -11.047999999999988 -48.126000000000005 C -9.835999999999988 -62.04900000000001 -5.901999999999988 -72.293 0.7570000000000121 -78.84800000000001 C 7.4150000000000125 -85.40700000000001 17.101000000000013 -88.68400000000001 29.81400000000001 -88.68400000000001 C 36.26900000000001 -88.68400000000001 41.96800000000001 -87.88000000000001 46.915000000000006 -86.263 C 51.857000000000006 -84.65100000000001 57.456 -82.432 63.71300000000001 -79.604 C 69.76700000000001 -76.378 74.203 -74.762 77.031 -74.762 C 80.46000000000001 -74.762 83.235 -76.077 85.35400000000001 -78.697" stroke-linecap="round" />
</g>
<g transform="matrix(0.99 0 0 -0.99 1481.11 362.17)" id="path34" clip-path="url(#CLIPPATH_6)"  >
<clipPath id="CLIPPATH_6" >
	<path transform="matrix(1 0 0 1 -9.45 -742.38) translate(-1500, -1500)" id="path16" d="M 0 3000 L 3000 3000 L 3000 0 L 0 0 Z" stroke-linecap="round" />
</clipPath>
<path style="stroke: none; stroke-width: 1; stroke-dasharray: none; stroke-linecap: butt; stroke-dashoffset: 0; stroke-linejoin: miter; stroke-miterlimit: 4; fill: rgb(51,51,51); fill-rule: nonzero; opacity: 1;" vector-effect="non-scaling-stroke"  transform=" translate(28.15, -66.89)" d="M 0 0 C 6.555 8.271 9.838 20.076 9.838 35.412 C 9.838 50.745 6.555 62.501999999999995 0 70.674 C -6.56 78.846 -15.791 82.933 -27.694 82.933 C -39.802 82.933 -49.185 78.894 -55.843 70.825 C -62.502 62.753 -65.83200000000001 51.151 -65.83200000000001 36.018 C -65.83200000000001 20.681 -62.50200000000001 8.778000000000002 -55.843 0.30299999999999727 C -49.185 -8.172000000000002 -39.906000000000006 -12.410000000000002 -27.997000000000003 -12.410000000000002 C -15.889 -12.41 -6.56 -8.276 0 0 M 41.921 170.708 C 45.552 167.478 47.369 163.24 47.369 157.996 L 47.369 -23.003 C 47.369 -28.451999999999998 45.653 -32.793 42.223 -36.019 C 38.79 -39.248999999999995 34.25 -40.861999999999995 28.603 -40.861999999999995 C 22.952 -40.861999999999995 18.412 -39.248999999999995 14.982000000000001 -36.01899999999999 C 11.549000000000001 -32.79299999999999 9.838000000000001 -28.45199999999999 9.838000000000001 -23.002999999999993 L 9.838000000000001 -15.436999999999994 C 5.396000000000001 -23.712999999999994 -1.0119999999999987 -30.168999999999993 -9.381999999999998 -34.80799999999999 C -17.759 -39.446999999999996 -27.291999999999998 -41.76899999999999 -37.986 -41.76899999999999 C -50.69799999999999 -41.76899999999999 -62.048 -38.54399999999999 -72.036 -32.08399999999999 C -82.025 -25.62799999999999 -89.795 -16.495999999999988 -95.342 -4.6919999999999895 C -100.895 7.11300000000001 -103.666 20.68100000000001 -103.666 36.018000000000015 C -103.666 51.350000000000016 -100.895 64.77200000000002 -95.342 76.27400000000002 C -89.795 87.77600000000001 -82.077 96.65300000000002 -72.188 102.90900000000002 C -62.303000000000004 109.16100000000002 -50.901 112.29200000000002 -37.986000000000004 112.29200000000002 C -27.292 112.29200000000002 -17.810000000000006 110.07000000000002 -9.534000000000002 105.63300000000001 C -1.2620000000000022 101.19300000000001 5.092999999999998 94.936 9.534999999999997 86.86700000000002 L 9.534999999999997 158.601 C 9.534999999999997 163.642 11.198999999999996 167.728 14.527999999999997 170.86 C 17.858999999999998 173.985 22.346999999999998 175.55 27.997999999999998 175.55 C 33.644 175.55 38.288 173.934 41.921 170.708" stroke-linecap="round" />
</g>
<g transform="matrix(0.99 0 0 -0.99 1631.62 362.23)" id="path38" clip-path="url(#CLIPPATH_7)"  >
<clipPath id="CLIPPATH_7" >
	<path transform="matrix(1 0 0 1 -161.84 -742.32) translate(-1500, -1500)" id="path16" d="M 0 3000 L 3000 3000 L 3000 0 L 0 0 Z" stroke-linecap="round" />
</clipPath>
<path style="stroke: none; stroke-width: 1; stroke-dasharray: none; stroke-linecap: butt; stroke-dashoffset: 0; stroke-linejoin: miter; stroke-miterlimit: 4; fill: rgb(55,113,184); fill-rule: nonzero; opacity: 1;" vector-effect="non-scaling-stroke"  transform=" translate(16.65, 70.58)" d="M 0 0 C -4.238 -5.047 -6.357 -12.311 -6.357 -21.793 L -6.357 -28.755 L 19.37 -28.755 C 30.669 -28.755 36.32 -33.498 36.32 -42.98 C 36.32 -52.467999999999996 30.669 -57.205999999999996 19.37 -57.205999999999996 L -6.357 -57.205999999999996 L -6.357 -160.418 C -6.357 -166.273 -8.125 -170.71 -11.653 -173.73600000000002 C -15.186 -176.763 -19.674 -178.27700000000002 -25.123 -178.27700000000002 C -30.57 -178.27700000000002 -35.11 -176.763 -38.743 -173.73600000000002 C -42.375 -170.71 -44.191 -166.27300000000002 -44.191 -160.418 L -44.191 -57.206 L -59.325 -57.206 C -70.628 -57.206 -76.274 -52.468 -76.274 -42.980000000000004 C -76.274 -33.498000000000005 -70.628 -28.755000000000003 -59.325 -28.755000000000003 L -44.191 -28.755000000000003 L -44.191 -26.635 C -44.191 -7.672000000000001 -39.197 7.210999999999995 -29.209000000000003 18.008999999999997 C -19.220000000000002 28.800999999999995 -5.146000000000004 34.90599999999999 13.013999999999996 36.31999999999999 L 20.883999999999997 36.925999999999995 C 28.952999999999996 37.53099999999999 34.655 36.67099999999999 37.983999999999995 34.352 C 41.31399999999999 32.029999999999994 42.97899999999999 28.450999999999997 42.97899999999999 23.607999999999997 C 42.97899999999999 14.929999999999996 38.03199999999999 10.086999999999996 28.147999999999993 9.078999999999997 L 20.278 8.474 C 10.995 7.868 4.238 5.041 0 0" stroke-linecap="round" />
</g>
<g transform="matrix(0.99 0 0 -0.99 1758.67 393.41)" id="path42" clip-path="url(#CLIPPATH_8)"  >
<clipPath id="CLIPPATH_8" >
	<path transform="matrix(1 0 0 1 -290.48 -710.75) translate(-1500, -1500)" id="path16" d="M 0 3000 L 3000 3000 L 3000 0 L 0 0 Z" stroke-linecap="round" />
</clipPath>
<path style="stroke: none; stroke-width: 1; stroke-dasharray: none; stroke-linecap: butt; stroke-dashoffset: 0; stroke-linejoin: miter; stroke-miterlimit: 4; fill: rgb(55,113,184); fill-rule: nonzero; opacity: 1;" vector-effect="non-scaling-stroke"  transform=" translate(19.83, -39.65)" d="M 0 0 C 6.356 6.757 9.534 15.484 9.534 26.181 L 9.534 32.537 L 4.086 32.537 C -9.435 32.537 -19.929000000000002 31.933 -27.392000000000003 30.721 C -34.86 29.51 -40.209 27.392 -43.434000000000005 24.366 C -46.664 21.338 -48.276 17.2 -48.276 11.956 C -48.276 5.494999999999999 -46.007000000000005 0.19899999999999984 -41.466 -3.9350000000000005 C -36.926 -8.074000000000002 -31.327 -10.141000000000002 -24.669 -10.141000000000002 C -14.581 -10.141 -6.357 -6.764 0 0 M 30.57 101.396 C 40.558 91.204 45.553 75.716 45.553 54.935 L 45.553 -18.917 C 45.553 -24.366 43.934999999999995 -28.655 40.708999999999996 -31.781000000000002 C 37.479 -34.912 33.038999999999994 -36.473 27.391999999999996 -36.473 C 22.142999999999997 -36.473 17.856999999999996 -34.86 14.527999999999995 -31.63 C 11.198999999999995 -28.404999999999998 9.533999999999995 -24.166999999999998 9.533999999999995 -18.917 L 9.533999999999995 -12.259 C 6.1009999999999955 -20.128 0.7039999999999953 -26.285 -6.658000000000005 -30.722 C -14.028000000000006 -35.158 -22.549000000000007 -37.38 -32.23500000000001 -37.38 C -42.12400000000001 -37.38 -51.105000000000004 -35.361000000000004 -59.17400000000001 -31.327 C -67.24600000000001 -27.294 -73.602 -21.746000000000002 -78.242 -14.680000000000003 C -82.885 -7.619000000000003 -85.203 0.24999999999999645 -85.203 8.927999999999997 C -85.203 19.824999999999996 -82.432 28.398999999999997 -76.88 34.656 C -71.332 40.908 -62.303999999999995 45.448 -49.78999999999999 48.275999999999996 C -37.28099999999999 51.099999999999994 -20.028999999999993 52.513999999999996 1.9670000000000059 52.513999999999996 L 9.534000000000006 52.513999999999996 L 9.534000000000006 59.474999999999994 C 9.534000000000006 69.359 7.416000000000006 76.577 3.178000000000006 81.11699999999999 C -1.0599999999999943 85.65599999999999 -7.9219999999999935 87.92699999999999 -17.404999999999994 87.92699999999999 C -23.258999999999993 87.92699999999999 -29.207999999999995 87.06599999999999 -35.26199999999999 85.354 C -41.31499999999999 83.637 -48.47999999999999 81.164 -56.75099999999999 77.938 C -62.00099999999999 75.31400000000001 -65.832 74.003 -68.25299999999999 74.003 C -71.88499999999999 74.003 -74.86499999999998 75.314 -77.18199999999999 77.938 C -79.50499999999998 80.559 -80.66299999999998 83.992 -80.66299999999998 88.23 C -80.66299999999998 91.658 -79.80699999999999 94.63300000000001 -78.09099999999998 97.158 C -76.37799999999999 99.679 -73.50299999999999 102.049 -69.46399999999998 104.271 C -62.402999999999984 108.102 -53.97999999999998 111.128 -44.19099999999999 113.351 C -34.40599999999999 115.57 -24.771999999999988 116.681 -15.28499999999999 116.681 C 5.29600000000001 116.681 20.58100000000001 111.582 30.570000000000007 101.396" stroke-linecap="round" />
</g>
<g transform="matrix(0.99 0 0 -0.99 1910.38 393.37)" id="path46" clip-path="url(#CLIPPATH_9)"  >
<clipPath id="CLIPPATH_9" >
	<path transform="matrix(1 0 0 1 -444.08 -710.79) translate(-1500, -1500)" id="path16" d="M 0 3000 L 3000 3000 L 3000 0 L 0 0 Z" stroke-linecap="round" />
</clipPath>
<path style="stroke: none; stroke-width: 1; stroke-dasharray: none; stroke-linecap: butt; stroke-dashoffset: 0; stroke-linejoin: miter; stroke-miterlimit: 4; fill: rgb(55,113,184); fill-rule: nonzero; opacity: 1;" vector-effect="non-scaling-stroke"  transform=" translate(45.25, 73.06)" d="M 0 0 C 3.026 -2.625 4.539 -6.56 4.539 -11.804 C 4.539 -17.252000000000002 3.2249999999999996 -21.291 0.6059999999999999 -23.91 C -2.019 -26.535 -6.764 -28.253 -13.621 -29.056 L -22.701 -29.965 C -34.609 -31.176 -43.334 -35.214 -48.882000000000005 -42.072 C -54.434000000000005 -48.933 -57.206 -57.508 -57.206 -67.799 L -57.206 -131.36 C -57.206 -137.216 -59.022000000000006 -141.703 -62.654 -144.83 C -66.286 -147.955 -70.827 -149.52200000000002 -76.274 -149.52200000000002 C -81.723 -149.52200000000002 -86.21600000000001 -147.955 -89.744 -144.83 C -93.276 -141.703 -95.04 -137.216 -95.04 -131.36 L -95.04 -14.225000000000009 C -95.04 -8.579000000000008 -93.27600000000001 -4.238000000000008 -89.744 -1.210000000000008 C -86.216 1.8169999999999922 -81.827 3.3289999999999917 -76.577 3.3289999999999917 C -71.332 3.3289999999999917 -67.095 1.8639999999999917 -63.864 -1.0600000000000085 C -60.638999999999996 -3.9860000000000086 -59.022 -8.172000000000008 -59.022 -13.620000000000008 L -59.022 -25.727000000000007 C -55.190999999999995 -16.85000000000001 -49.486999999999995 -9.988000000000007 -41.921 -5.145000000000007 C -34.354 -0.30300000000000704 -25.930999999999997 2.4219999999999935 -16.648 3.0259999999999927 L -12.41 3.3289999999999926 C -7.165 3.732 -3.028 2.62 0 0" stroke-linecap="round" />
</g>
<g transform="matrix(0.99 0 0 -0.99 2087.2 393.11)" id="path50" clip-path="url(#CLIPPATH_10)"  >
<clipPath id="CLIPPATH_10" >
	<path transform="matrix(1 0 0 1 -623.11 -711.06) translate(-1500, -1500)" id="path16" d="M 0 3000 L 3000 3000 L 3000 0 L 0 0 Z" stroke-linecap="round" />
</clipPath>
<path style="stroke: none; stroke-width: 1; stroke-dasharray: none; stroke-linecap: butt; stroke-dashoffset: 0; stroke-linejoin: miter; stroke-miterlimit: 4; fill: rgb(55,113,184); fill-rule: nonzero; opacity: 1;" vector-effect="non-scaling-stroke"  transform=" translate(100.03, 62.35)" d="M 0 0 C 8.574 -9.586 12.863 -25.075 12.863 -46.461 L 12.863 -120.91799999999999 C 12.863 -126.77399999999999 11.094 -131.261 7.566999999999999 -134.388 C 4.033999999999999 -137.513 -0.5590000000000002 -139.08 -6.206 -139.08 C -11.653 -139.08 -16.146 -137.513 -19.674 -134.388 C -23.207 -131.261 -24.971 -126.774 -24.971 -120.918 L -24.971 -46.46100000000001 C -24.971 -35.366000000000014 -26.938 -27.444000000000013 -30.873 -22.70100000000001 C -34.808 -17.961000000000013 -40.814 -15.588000000000012 -48.883 -15.588000000000012 C -58.772000000000006 -15.588000000000012 -66.64 -18.970000000000013 -72.49000000000001 -25.72700000000001 C -78.346 -32.491000000000014 -81.269 -41.72200000000001 -81.269 -53.42200000000001 L -81.269 -120.918 C -81.269 -126.774 -83.03800000000001 -131.261 -86.566 -134.388 C -90.098 -137.513 -94.586 -139.08 -100.034 -139.08 C -105.483 -139.08 -110.022 -137.513 -113.65400000000001 -134.388 C -117.28600000000002 -131.261 -119.10300000000001 -126.774 -119.10300000000001 -120.918 L -119.10300000000001 -46.46100000000001 C -119.10300000000001 -35.366000000000014 -121.07000000000001 -27.444000000000013 -125.004 -22.70100000000001 C -128.939 -17.961000000000013 -134.946 -15.588000000000012 -143.014 -15.588000000000012 C -152.904 -15.588000000000012 -160.72 -18.970000000000013 -166.471 -25.72700000000001 C -172.222 -32.491000000000014 -175.097 -41.72200000000001 -175.097 -53.42200000000001 L -175.097 -120.918 C -175.097 -126.774 -176.91400000000002 -131.261 -180.54600000000002 -134.388 C -184.17800000000003 -137.513 -188.71800000000002 -139.08 -194.16600000000003 -139.08 C -199.61500000000004 -139.08 -204.10700000000003 -137.513 -207.63600000000002 -134.388 C -211.16700000000003 -131.261 -212.93200000000002 -126.774 -212.93200000000002 -120.918 L -212.93200000000002 -3.783 C -212.93200000000002 1.863 -211.116 6.204000000000001 -207.484 9.232000000000001 C -203.852 12.259 -199.312 13.771 -193.863 13.771 C -188.618 13.771 -184.329 12.306000000000001 -181 9.382000000000001 C -177.671 6.456000000000001 -176.006 2.2700000000000014 -176.006 -3.177999999999999 L -176.006 -10.442 C -171.366 -2.375 -165.161 3.7829999999999995 -157.391 8.021 C -149.625 12.259 -140.696 14.377 -130.60399999999998 14.377 C -108.40899999999999 14.377 -93.57799999999997 5.093 -86.112 -13.469 C -81.675 -4.994999999999999 -75.115 1.7640000000000011 -66.43799999999999 6.8100000000000005 C -57.76299999999999 11.852 -47.97499999999999 14.377 -37.078999999999986 14.377 C -20.938 14.377 -8.579 9.581 0 0" stroke-linecap="round" />
</g>
<g transform="matrix(0.99 0 0 -0.99 2295.55 393.41)" id="path54" clip-path="url(#CLIPPATH_11)"  >
<clipPath id="CLIPPATH_11" >
	<path transform="matrix(1 0 0 1 -834.07 -710.75) translate(-1500, -1500)" id="path16" d="M 0 3000 L 3000 3000 L 3000 0 L 0 0 Z" stroke-linecap="round" />
</clipPath>
<path style="stroke: none; stroke-width: 1; stroke-dasharray: none; stroke-linecap: butt; stroke-dashoffset: 0; stroke-linejoin: miter; stroke-miterlimit: 4; fill: rgb(55,113,184); fill-rule: nonzero; opacity: 1;" vector-effect="non-scaling-stroke"  transform=" translate(19.83, -39.65)" d="M 0 0 C 6.356 6.757 9.534 15.484 9.534 26.181 L 9.534 32.537 L 4.086 32.537 C -9.435 32.537 -19.929000000000002 31.933 -27.392000000000003 30.721 C -34.86 29.51 -40.209 27.392 -43.434000000000005 24.366 C -46.663000000000004 21.338 -48.276 17.2 -48.276 11.956 C -48.276 5.494999999999999 -46.007000000000005 0.19899999999999984 -41.466 -3.9350000000000005 C -36.926 -8.074000000000002 -31.327 -10.141000000000002 -24.668000000000003 -10.141000000000002 C -14.581 -10.141 -6.357 -6.764 0 0 M 30.57 101.396 C 40.558 91.204 45.553 75.716 45.553 54.935 L 45.553 -18.917 C 45.553 -24.366 43.934999999999995 -28.655 40.708999999999996 -31.781000000000002 C 37.479 -34.912 33.038999999999994 -36.473 27.391999999999996 -36.473 C 22.142999999999997 -36.473 17.856999999999996 -34.86 14.527999999999995 -31.63 C 11.198999999999995 -28.404999999999998 9.533999999999995 -24.166999999999998 9.533999999999995 -18.917 L 9.533999999999995 -12.259 C 6.1009999999999955 -20.128 0.7049999999999947 -26.285 -6.658000000000005 -30.722 C -14.028000000000006 -35.158 -22.549000000000007 -37.38 -32.23500000000001 -37.38 C -42.12400000000001 -37.38 -51.105000000000004 -35.361000000000004 -59.17400000000001 -31.327 C -67.24600000000001 -27.294 -73.602 -21.746000000000002 -78.242 -14.680000000000003 C -82.885 -7.619000000000003 -85.203 0.24999999999999645 -85.203 8.927999999999997 C -85.203 19.824999999999996 -82.432 28.398999999999997 -76.88 34.656 C -71.332 40.908 -62.303999999999995 45.448 -49.78999999999999 48.275999999999996 C -37.28099999999999 51.099999999999994 -20.028999999999993 52.513999999999996 1.9670000000000059 52.513999999999996 L 9.534000000000006 52.513999999999996 L 9.534000000000006 59.474999999999994 C 9.534000000000006 69.359 7.416000000000006 76.577 3.178000000000006 81.11699999999999 C -1.0599999999999943 85.65599999999999 -7.9219999999999935 87.92699999999999 -17.404999999999994 87.92699999999999 C -23.258999999999993 87.92699999999999 -29.207999999999995 87.06599999999999 -35.26199999999999 85.354 C -41.31499999999999 83.637 -48.47999999999999 81.164 -56.75099999999999 77.938 C -62.00099999999999 75.31400000000001 -65.832 74.003 -68.25299999999999 74.003 C -71.88499999999999 74.003 -74.86499999999998 75.314 -77.18199999999999 77.938 C -79.50399999999999 80.559 -80.66299999999998 83.992 -80.66299999999998 88.23 C -80.66299999999998 91.658 -79.80699999999999 94.63300000000001 -78.09099999999998 97.158 C -76.37799999999999 99.679 -73.50299999999999 102.049 -69.46399999999998 104.271 C -62.402999999999984 108.102 -53.97999999999998 111.128 -44.19099999999999 113.351 C -34.40599999999999 115.57 -24.771999999999988 116.681 -15.28499999999999 116.681 C 5.29600000000001 116.681 20.58100000000001 111.582 30.570000000000007 101.396" stroke-linecap="round" />
</g>
<g transform="matrix(0.99 0 0 -0.99 679.88 384.82)" id="path58" clip-path="url(#CLIPPATH_12)"  >
<clipPath id="CLIPPATH_12" >
	<path transform="matrix(1 0 0 1 801.79 -719.45) translate(-1500, -1500)" id="path16" d="M 0 3000 L 3000 3000 L 3000 0 L 0 0 Z" stroke-linecap="round" />
</clipPath>
<path style="stroke: none; stroke-width: 1; stroke-dasharray: none; stroke-linecap: butt; stroke-dashoffset: 0; stroke-linejoin: miter; stroke-miterlimit: 4; fill: rgb(55,113,184); fill-rule: nonzero; opacity: 1;" vector-effect="non-scaling-stroke"  transform=" translate(97.66, 83.5)" d="M 0 0 C -30.879 48.338 -94.743 64.229 -143.943 34.743 C -195.14600000000002 4.057000000000002 -210.651 -62.85399999999999 -178.727 -112.827 L -117.582 -208.54500000000002 C -112.40199999999999 -216.65400000000002 -101.62899999999999 -219.02800000000002 -93.52 -213.848 C -85.411 -208.668 -83.03699999999999 -197.895 -88.217 -189.786 L -149.363 -94.068 C -170.858 -60.419 -160.273 -15.310000000000002 -125.57 5.128 C -125.57 5.128 -71.22899999999998 41.142 0 0" stroke-linecap="round" />
</g>
<g transform="matrix(0.99 0 0 -0.99 757.05 414.75)" id="path62" clip-path="url(#CLIPPATH_13)"  >
<clipPath id="CLIPPATH_13" >
	<path transform="matrix(1 0 0 1 723.66 -689.14) translate(-1500, -1500)" id="path16" d="M 0 3000 L 3000 3000 L 3000 0 L 0 0 Z" stroke-linecap="round" />
</clipPath>
<path style="stroke: none; stroke-width: 1; stroke-dasharray: none; stroke-linecap: butt; stroke-dashoffset: 0; stroke-linejoin: miter; stroke-miterlimit: 4; fill: rgb(118,182,67); fill-rule: nonzero; opacity: 1;" vector-effect="non-scaling-stroke"  transform=" translate(89.45, 4.36)" d="M 0 0 L -69.914 109.444 C -141.143 150.586 -195.48399999999998 114.572 -195.48399999999998 114.572 C -162.52299999999997 133.984 -120.00999999999998 123.13900000000001 -99.41699999999999 90.902 L -61.665 31.804 L -106.676 3.051 C -114.785 -2.1289999999999996 -117.159 -12.902 -111.979 -21.011000000000003 L -111.979 -21.011000000000003 C -106.799 -29.120000000000005 -96.026 -31.494000000000003 -87.918 -26.314000000000004 L -42.906000000000006 2.4389999999999965 L -29.365000000000006 -18.759000000000004 C -10.948000000000004 -47.587 -16.081000000000003 -84.828 -39.75300000000001 -107.759 C -45.76200000000001 -113.58 -46.982000000000006 -122.758 -42.47800000000001 -129.809 L -42.47800000000001 -129.809 C -36.58800000000001 -139.029 -23.69900000000001 -140.663 -15.81000000000001 -133.083 C 19.771 -98.898 27.554 -43.134 0 0" stroke-linecap="round" />
</g>
</svg>